<mxfile host="app.diagrams.net" modified="2022-09-12T04:39:06.245Z" agent="5.0 (Windows NT 10.0; Win64; x64) AppleWebKit/537.36 (KHTML, like Gecko) Chrome/105.0.0.0 Safari/537.36" etag="RRKb5RuZIn4ENeJJNMIW" version="20.3.0" type="github">
  <diagram name="Page-1" id="97916047-d0de-89f5-080d-49f4d83e522f">
    <mxGraphModel dx="1572" dy="708" grid="1" gridSize="10" guides="1" tooltips="1" connect="1" arrows="1" fold="1" page="1" pageScale="1.5" pageWidth="1169" pageHeight="827" background="none" math="0" shadow="0">
      <root>
        <mxCell id="0" />
        <mxCell id="1" parent="0" />
        <mxCell id="NtgkYF7F7TmmjQ99U1we-57" style="edgeStyle=elbowEdgeStyle;elbow=vertical;strokeWidth=4;endArrow=block;endFill=1;fontStyle=1;strokeColor=#23445D;entryX=0.5;entryY=0;entryDx=0;entryDy=0;" edge="1" parent="1" source="2" target="NtgkYF7F7TmmjQ99U1we-68">
          <mxGeometry relative="1" as="geometry">
            <mxPoint x="808" y="184.5" as="targetPoint" />
          </mxGeometry>
        </mxCell>
        <mxCell id="2" value="AI" style="rounded=1;fillColor=#10739E;strokeColor=none;shadow=1;gradientColor=none;fontStyle=1;fontColor=#FFFFFF;fontSize=20;" parent="1" vertex="1">
          <mxGeometry x="828" y="50" width="72" height="60" as="geometry" />
        </mxCell>
        <mxCell id="NtgkYF7F7TmmjQ99U1we-71" style="edgeStyle=elbowEdgeStyle;elbow=vertical;strokeWidth=4;endArrow=block;endFill=1;fontStyle=1;strokeColor=#23445D;entryX=0.5;entryY=0;entryDx=0;entryDy=0;" edge="1" parent="1" source="NtgkYF7F7TmmjQ99U1we-68" target="NtgkYF7F7TmmjQ99U1we-70">
          <mxGeometry relative="1" as="geometry" />
        </mxCell>
        <mxCell id="NtgkYF7F7TmmjQ99U1we-83" style="edgeStyle=orthogonalEdgeStyle;elbow=vertical;strokeWidth=2;endArrow=block;endFill=1;fontStyle=1;strokeColor=#23445D;exitX=0;exitY=0.5;exitDx=0;exitDy=0;entryX=1;entryY=0.5;entryDx=0;entryDy=0;" edge="1" parent="1" source="NtgkYF7F7TmmjQ99U1we-68" target="NtgkYF7F7TmmjQ99U1we-73">
          <mxGeometry relative="1" as="geometry" />
        </mxCell>
        <mxCell id="NtgkYF7F7TmmjQ99U1we-84" style="edgeStyle=orthogonalEdgeStyle;elbow=vertical;strokeWidth=2;endArrow=block;endFill=1;fontStyle=1;strokeColor=#23445D;exitX=0;exitY=0.5;exitDx=0;exitDy=0;entryX=1;entryY=0.5;entryDx=0;entryDy=0;" edge="1" parent="1" source="NtgkYF7F7TmmjQ99U1we-68" target="NtgkYF7F7TmmjQ99U1we-74">
          <mxGeometry relative="1" as="geometry" />
        </mxCell>
        <mxCell id="NtgkYF7F7TmmjQ99U1we-85" style="edgeStyle=orthogonalEdgeStyle;elbow=vertical;strokeWidth=2;endArrow=block;endFill=1;fontStyle=1;strokeColor=#23445D;exitX=0;exitY=0.5;exitDx=0;exitDy=0;entryX=1;entryY=0.5;entryDx=0;entryDy=0;" edge="1" parent="1" source="NtgkYF7F7TmmjQ99U1we-68" target="NtgkYF7F7TmmjQ99U1we-75">
          <mxGeometry relative="1" as="geometry" />
        </mxCell>
        <mxCell id="NtgkYF7F7TmmjQ99U1we-86" style="edgeStyle=orthogonalEdgeStyle;elbow=vertical;strokeWidth=2;endArrow=block;endFill=1;fontStyle=1;strokeColor=#23445D;entryX=0;entryY=0.5;entryDx=0;entryDy=0;exitX=1;exitY=0.5;exitDx=0;exitDy=0;" edge="1" parent="1" source="NtgkYF7F7TmmjQ99U1we-68" target="NtgkYF7F7TmmjQ99U1we-76">
          <mxGeometry relative="1" as="geometry" />
        </mxCell>
        <mxCell id="NtgkYF7F7TmmjQ99U1we-87" style="edgeStyle=orthogonalEdgeStyle;elbow=vertical;strokeWidth=2;endArrow=block;endFill=1;fontStyle=1;strokeColor=#23445D;entryX=0;entryY=0.5;entryDx=0;entryDy=0;exitX=1;exitY=0.5;exitDx=0;exitDy=0;" edge="1" parent="1" source="NtgkYF7F7TmmjQ99U1we-68" target="NtgkYF7F7TmmjQ99U1we-77">
          <mxGeometry relative="1" as="geometry" />
        </mxCell>
        <mxCell id="NtgkYF7F7TmmjQ99U1we-88" style="edgeStyle=orthogonalEdgeStyle;elbow=vertical;strokeWidth=2;endArrow=block;endFill=1;fontStyle=1;strokeColor=#23445D;entryX=0;entryY=0.5;entryDx=0;entryDy=0;exitX=1;exitY=0.5;exitDx=0;exitDy=0;" edge="1" parent="1" source="NtgkYF7F7TmmjQ99U1we-68" target="NtgkYF7F7TmmjQ99U1we-78">
          <mxGeometry relative="1" as="geometry" />
        </mxCell>
        <mxCell id="NtgkYF7F7TmmjQ99U1we-89" style="edgeStyle=orthogonalEdgeStyle;elbow=vertical;strokeWidth=2;endArrow=block;endFill=1;fontStyle=1;strokeColor=#23445D;entryX=0;entryY=0.5;entryDx=0;entryDy=0;exitX=1;exitY=0.5;exitDx=0;exitDy=0;" edge="1" parent="1" source="NtgkYF7F7TmmjQ99U1we-68" target="NtgkYF7F7TmmjQ99U1we-79">
          <mxGeometry relative="1" as="geometry" />
        </mxCell>
        <mxCell id="NtgkYF7F7TmmjQ99U1we-91" style="edgeStyle=orthogonalEdgeStyle;elbow=vertical;strokeWidth=2;endArrow=block;endFill=1;fontStyle=1;strokeColor=#23445D;exitX=0;exitY=0.5;exitDx=0;exitDy=0;entryX=1;entryY=0.5;entryDx=0;entryDy=0;" edge="1" parent="1" source="NtgkYF7F7TmmjQ99U1we-68" target="NtgkYF7F7TmmjQ99U1we-72">
          <mxGeometry relative="1" as="geometry" />
        </mxCell>
        <mxCell id="NtgkYF7F7TmmjQ99U1we-68" value="Machine Learning" style="rounded=1;fillColor=#10739E;strokeColor=none;shadow=1;gradientColor=none;fontStyle=1;fontColor=#FFFFFF;fontSize=20;" vertex="1" parent="1">
          <mxGeometry x="768" y="150" width="192" height="60" as="geometry" />
        </mxCell>
        <mxCell id="NtgkYF7F7TmmjQ99U1we-93" style="edgeStyle=elbowEdgeStyle;elbow=vertical;strokeWidth=4;endArrow=block;endFill=1;fontStyle=1;strokeColor=#23445D;entryX=0.5;entryY=0;entryDx=0;entryDy=0;" edge="1" parent="1" source="NtgkYF7F7TmmjQ99U1we-70" target="NtgkYF7F7TmmjQ99U1we-92">
          <mxGeometry relative="1" as="geometry" />
        </mxCell>
        <mxCell id="NtgkYF7F7TmmjQ99U1we-70" value="Artificial Neural Network &#xa;( ANN )" style="rounded=1;fillColor=#10739E;strokeColor=none;shadow=1;gradientColor=none;fontStyle=1;fontColor=#FFFFFF;fontSize=20;" vertex="1" parent="1">
          <mxGeometry x="734" y="250" width="260" height="60" as="geometry" />
        </mxCell>
        <mxCell id="NtgkYF7F7TmmjQ99U1we-72" value="Supervised Learning" style="rounded=1;fillColor=#666666;strokeColor=none;shadow=1;gradientColor=none;fontStyle=1;fontColor=#FFFFFF;fontSize=16&#xa;;" vertex="1" parent="1">
          <mxGeometry x="440" y="200" width="192" height="40" as="geometry" />
        </mxCell>
        <mxCell id="NtgkYF7F7TmmjQ99U1we-73" value="Unsupervised Learning" style="rounded=1;fillColor=#666666;strokeColor=none;shadow=1;gradientColor=none;fontStyle=1;fontColor=#FFFFFF;fontSize=16&#xa;;" vertex="1" parent="1">
          <mxGeometry x="440" y="250" width="192" height="40" as="geometry" />
        </mxCell>
        <mxCell id="NtgkYF7F7TmmjQ99U1we-74" value="Reinforcement Learning" style="rounded=1;fillColor=#666666;strokeColor=none;shadow=1;gradientColor=none;fontStyle=1;fontColor=#FFFFFF;fontSize=16&#xa;;" vertex="1" parent="1">
          <mxGeometry x="440" y="300" width="192" height="40" as="geometry" />
        </mxCell>
        <mxCell id="NtgkYF7F7TmmjQ99U1we-75" value="Evolutionary Learning" style="rounded=1;fillColor=#666666;strokeColor=none;shadow=1;gradientColor=none;fontStyle=1;fontColor=#FFFFFF;fontSize=16&#xa;;" vertex="1" parent="1">
          <mxGeometry x="440" y="350" width="192" height="40" as="geometry" />
        </mxCell>
        <mxCell id="NtgkYF7F7TmmjQ99U1we-76" value="Semi-Supervised Learning" style="rounded=1;fillColor=#666666;strokeColor=none;shadow=1;gradientColor=none;fontStyle=1;fontColor=#FFFFFF;fontSize=16&#xa;;" vertex="1" parent="1">
          <mxGeometry x="1090" y="200" width="220" height="40" as="geometry" />
        </mxCell>
        <mxCell id="NtgkYF7F7TmmjQ99U1we-77" value="Ensemble Learning" style="rounded=1;fillColor=#666666;strokeColor=none;shadow=1;gradientColor=none;fontStyle=1;fontColor=#FFFFFF;fontSize=16&#xa;;" vertex="1" parent="1">
          <mxGeometry x="1090" y="250" width="220" height="40" as="geometry" />
        </mxCell>
        <mxCell id="NtgkYF7F7TmmjQ99U1we-78" value="Instance based learning" style="rounded=1;fillColor=#666666;strokeColor=none;shadow=1;gradientColor=none;fontStyle=1;fontColor=#FFFFFF;fontSize=16&#xa;;" vertex="1" parent="1">
          <mxGeometry x="1090" y="300" width="220" height="40" as="geometry" />
        </mxCell>
        <mxCell id="NtgkYF7F7TmmjQ99U1we-79" value="Dimensionality reduction" style="rounded=1;fillColor=#666666;strokeColor=none;shadow=1;gradientColor=none;fontStyle=1;fontColor=#FFFFFF;fontSize=16&#xa;;" vertex="1" parent="1">
          <mxGeometry x="1090" y="350" width="220" height="40" as="geometry" />
        </mxCell>
        <mxCell id="NtgkYF7F7TmmjQ99U1we-96" style="edgeStyle=elbowEdgeStyle;elbow=vertical;strokeWidth=4;endArrow=block;endFill=1;fontStyle=1;strokeColor=#23445D;entryX=0.5;entryY=0;entryDx=0;entryDy=0;" edge="1" parent="1" source="NtgkYF7F7TmmjQ99U1we-92" target="NtgkYF7F7TmmjQ99U1we-94">
          <mxGeometry relative="1" as="geometry" />
        </mxCell>
        <mxCell id="NtgkYF7F7TmmjQ99U1we-97" style="edgeStyle=orthogonalEdgeStyle;elbow=vertical;strokeWidth=2;endArrow=block;endFill=1;fontStyle=1;strokeColor=#23445D;entryX=0.5;entryY=0;entryDx=0;entryDy=0;exitX=0.5;exitY=1;exitDx=0;exitDy=0;" edge="1" parent="1" source="NtgkYF7F7TmmjQ99U1we-92" target="NtgkYF7F7TmmjQ99U1we-95">
          <mxGeometry relative="1" as="geometry" />
        </mxCell>
        <mxCell id="NtgkYF7F7TmmjQ99U1we-92" value="Deep Learning&#xa;(DL)" style="rounded=1;fillColor=#10739E;strokeColor=none;shadow=1;gradientColor=none;fontStyle=1;fontColor=#FFFFFF;fontSize=20;" vertex="1" parent="1">
          <mxGeometry x="734" y="360" width="260" height="60" as="geometry" />
        </mxCell>
        <mxCell id="NtgkYF7F7TmmjQ99U1we-99" style="edgeStyle=elbowEdgeStyle;elbow=vertical;strokeWidth=4;endArrow=block;endFill=1;fontStyle=1;strokeColor=#23445D;entryX=0.5;entryY=0;entryDx=0;entryDy=0;" edge="1" parent="1" source="NtgkYF7F7TmmjQ99U1we-94" target="NtgkYF7F7TmmjQ99U1we-98">
          <mxGeometry relative="1" as="geometry" />
        </mxCell>
        <mxCell id="NtgkYF7F7TmmjQ99U1we-103" style="edgeStyle=orthogonalEdgeStyle;elbow=vertical;strokeWidth=2;endArrow=block;endFill=1;fontStyle=1;strokeColor=#23445D;entryX=0.5;entryY=0;entryDx=0;entryDy=0;exitX=0.5;exitY=1;exitDx=0;exitDy=0;" edge="1" parent="1" source="NtgkYF7F7TmmjQ99U1we-94" target="NtgkYF7F7TmmjQ99U1we-100">
          <mxGeometry relative="1" as="geometry" />
        </mxCell>
        <mxCell id="NtgkYF7F7TmmjQ99U1we-107" style="edgeStyle=orthogonalEdgeStyle;elbow=vertical;strokeWidth=2;endArrow=block;endFill=1;fontStyle=1;strokeColor=#23445D;entryX=0.5;entryY=0;entryDx=0;entryDy=0;exitX=0.5;exitY=1;exitDx=0;exitDy=0;" edge="1" parent="1" source="NtgkYF7F7TmmjQ99U1we-94" target="NtgkYF7F7TmmjQ99U1we-102">
          <mxGeometry relative="1" as="geometry" />
        </mxCell>
        <mxCell id="NtgkYF7F7TmmjQ99U1we-94" value="Supervised Model" style="rounded=1;fillColor=#10739E;strokeColor=none;shadow=1;gradientColor=none;fontStyle=1;fontColor=#FFFFFF;fontSize=20;" vertex="1" parent="1">
          <mxGeometry x="590" y="480" width="260" height="60" as="geometry" />
        </mxCell>
        <mxCell id="NtgkYF7F7TmmjQ99U1we-113" style="edgeStyle=orthogonalEdgeStyle;elbow=vertical;strokeWidth=2;endArrow=block;endFill=1;fontStyle=1;strokeColor=#23445D;entryX=0.5;entryY=0;entryDx=0;entryDy=0;exitX=0.5;exitY=1;exitDx=0;exitDy=0;" edge="1" parent="1" source="NtgkYF7F7TmmjQ99U1we-95" target="NtgkYF7F7TmmjQ99U1we-101">
          <mxGeometry relative="1" as="geometry" />
        </mxCell>
        <mxCell id="NtgkYF7F7TmmjQ99U1we-114" style="edgeStyle=orthogonalEdgeStyle;elbow=vertical;strokeWidth=2;endArrow=block;endFill=1;fontStyle=1;strokeColor=#23445D;entryX=0.5;entryY=0;entryDx=0;entryDy=0;exitX=0.5;exitY=1;exitDx=0;exitDy=0;" edge="1" parent="1" source="NtgkYF7F7TmmjQ99U1we-95" target="NtgkYF7F7TmmjQ99U1we-109">
          <mxGeometry relative="1" as="geometry" />
        </mxCell>
        <mxCell id="NtgkYF7F7TmmjQ99U1we-115" style="edgeStyle=orthogonalEdgeStyle;elbow=vertical;strokeWidth=2;endArrow=block;endFill=1;fontStyle=1;strokeColor=#23445D;entryX=0.5;entryY=0;entryDx=0;entryDy=0;exitX=0.5;exitY=1;exitDx=0;exitDy=0;" edge="1" parent="1" source="NtgkYF7F7TmmjQ99U1we-95" target="NtgkYF7F7TmmjQ99U1we-108">
          <mxGeometry relative="1" as="geometry" />
        </mxCell>
        <mxCell id="NtgkYF7F7TmmjQ99U1we-95" value="Unsupervised Model" style="rounded=1;fillColor=#666666;strokeColor=none;shadow=1;gradientColor=none;fontStyle=1;fontColor=#FFFFFF;fontSize=20;" vertex="1" parent="1">
          <mxGeometry x="900" y="480" width="260" height="60" as="geometry" />
        </mxCell>
        <mxCell id="NtgkYF7F7TmmjQ99U1we-118" style="edgeStyle=elbowEdgeStyle;elbow=vertical;strokeWidth=4;endArrow=block;endFill=1;fontStyle=1;strokeColor=#23445D;entryX=0.5;entryY=0;entryDx=0;entryDy=0;" edge="1" parent="1" source="NtgkYF7F7TmmjQ99U1we-98" target="NtgkYF7F7TmmjQ99U1we-116">
          <mxGeometry relative="1" as="geometry" />
        </mxCell>
        <mxCell id="NtgkYF7F7TmmjQ99U1we-98" value="Recurrent Neural Network&#xa;(RNN)" style="rounded=1;fillColor=#10739E;strokeColor=none;shadow=1;gradientColor=none;fontStyle=1;fontColor=#FFFFFF;fontSize=20;" vertex="1" parent="1">
          <mxGeometry x="590" y="590" width="260" height="70" as="geometry" />
        </mxCell>
        <mxCell id="NtgkYF7F7TmmjQ99U1we-100" value="CNN" style="rounded=1;fillColor=#666666;strokeColor=none;shadow=1;gradientColor=none;fontStyle=1;fontColor=#FFFFFF;fontSize=20;" vertex="1" parent="1">
          <mxGeometry x="450" y="590" width="100" height="60" as="geometry" />
        </mxCell>
        <mxCell id="NtgkYF7F7TmmjQ99U1we-101" value="SOM" style="rounded=1;fillColor=#666666;strokeColor=none;shadow=1;gradientColor=none;fontStyle=1;fontColor=#FFFFFF;fontSize=20;" vertex="1" parent="1">
          <mxGeometry x="990" y="590" width="80" height="60" as="geometry" />
        </mxCell>
        <mxCell id="NtgkYF7F7TmmjQ99U1we-102" value="Classic &#xa;Neural&#xa;Network" style="rounded=1;fillColor=#666666;strokeColor=none;shadow=1;gradientColor=none;fontStyle=1;fontColor=#FFFFFF;fontSize=20;" vertex="1" parent="1">
          <mxGeometry x="320" y="590" width="110" height="100" as="geometry" />
        </mxCell>
        <mxCell id="NtgkYF7F7TmmjQ99U1we-108" value="Boltzmann&#xa;Machines" style="rounded=1;fillColor=#666666;strokeColor=none;shadow=1;gradientColor=none;fontStyle=1;fontColor=#FFFFFF;fontSize=20;" vertex="1" parent="1">
          <mxGeometry x="1080" y="590" width="120" height="60" as="geometry" />
        </mxCell>
        <mxCell id="NtgkYF7F7TmmjQ99U1we-109" value="Auto &#xa;Encoders" style="rounded=1;fillColor=#666666;strokeColor=none;shadow=1;gradientColor=none;fontStyle=1;fontColor=#FFFFFF;fontSize=20;" vertex="1" parent="1">
          <mxGeometry x="870" y="590" width="110" height="60" as="geometry" />
        </mxCell>
        <mxCell id="NtgkYF7F7TmmjQ99U1we-124" style="edgeStyle=elbowEdgeStyle;elbow=vertical;strokeWidth=4;endArrow=block;endFill=1;fontStyle=1;strokeColor=#23445D;entryX=0.5;entryY=0;entryDx=0;entryDy=0;fillColor=none;" edge="1" parent="1" source="NtgkYF7F7TmmjQ99U1we-116" target="NtgkYF7F7TmmjQ99U1we-120">
          <mxGeometry relative="1" as="geometry" />
        </mxCell>
        <mxCell id="NtgkYF7F7TmmjQ99U1we-129" style="edgeStyle=orthogonalEdgeStyle;elbow=vertical;strokeWidth=2;endArrow=block;endFill=1;fontStyle=1;strokeColor=#23445D;entryX=0.5;entryY=0;entryDx=0;entryDy=0;exitX=0.5;exitY=1;exitDx=0;exitDy=0;" edge="1" parent="1" source="NtgkYF7F7TmmjQ99U1we-116" target="NtgkYF7F7TmmjQ99U1we-119">
          <mxGeometry relative="1" as="geometry">
            <Array as="points">
              <mxPoint x="720" y="860" />
              <mxPoint x="490" y="860" />
            </Array>
          </mxGeometry>
        </mxCell>
        <mxCell id="NtgkYF7F7TmmjQ99U1we-130" style="edgeStyle=orthogonalEdgeStyle;elbow=vertical;strokeWidth=2;endArrow=block;endFill=1;fontStyle=1;strokeColor=#23445D;entryX=0.5;entryY=0;entryDx=0;entryDy=0;exitX=0.5;exitY=1;exitDx=0;exitDy=0;" edge="1" parent="1" source="NtgkYF7F7TmmjQ99U1we-116" target="NtgkYF7F7TmmjQ99U1we-121">
          <mxGeometry relative="1" as="geometry">
            <Array as="points">
              <mxPoint x="720" y="860" />
              <mxPoint x="598" y="860" />
            </Array>
          </mxGeometry>
        </mxCell>
        <mxCell id="NtgkYF7F7TmmjQ99U1we-131" style="edgeStyle=orthogonalEdgeStyle;elbow=vertical;strokeWidth=2;endArrow=block;endFill=1;fontStyle=1;strokeColor=#23445D;entryX=0.5;entryY=0;entryDx=0;entryDy=0;exitX=0.5;exitY=1;exitDx=0;exitDy=0;" edge="1" parent="1" source="NtgkYF7F7TmmjQ99U1we-116" target="NtgkYF7F7TmmjQ99U1we-122">
          <mxGeometry relative="1" as="geometry">
            <Array as="points">
              <mxPoint x="720" y="860" />
              <mxPoint x="838" y="860" />
            </Array>
          </mxGeometry>
        </mxCell>
        <mxCell id="NtgkYF7F7TmmjQ99U1we-132" style="edgeStyle=orthogonalEdgeStyle;elbow=vertical;strokeWidth=2;endArrow=block;endFill=1;fontStyle=1;strokeColor=#23445D;entryX=0.5;entryY=0;entryDx=0;entryDy=0;exitX=0.5;exitY=1;exitDx=0;exitDy=0;" edge="1" parent="1" source="NtgkYF7F7TmmjQ99U1we-116" target="NtgkYF7F7TmmjQ99U1we-123">
          <mxGeometry relative="1" as="geometry">
            <Array as="points">
              <mxPoint x="720" y="860" />
              <mxPoint x="948" y="860" />
            </Array>
          </mxGeometry>
        </mxCell>
        <mxCell id="NtgkYF7F7TmmjQ99U1we-116" value="Language Model" style="rounded=1;fillColor=#10739E;strokeColor=none;shadow=1;gradientColor=none;fontStyle=1;fontColor=#FFFFFF;fontSize=20;" vertex="1" parent="1">
          <mxGeometry x="590" y="700" width="260" height="60" as="geometry" />
        </mxCell>
        <mxCell id="NtgkYF7F7TmmjQ99U1we-117" value="Modern RNN" style="rounded=1;fillColor=#10739E;strokeColor=none;shadow=1;gradientColor=none;fontStyle=1;fontColor=#FFFFFF;fontSize=20;" vertex="1" parent="1">
          <mxGeometry x="802" y="780" width="150" height="60" as="geometry" />
        </mxCell>
        <mxCell id="NtgkYF7F7TmmjQ99U1we-119" value="LSTM" style="rounded=1;fillColor=#666666;strokeColor=none;shadow=1;gradientColor=none;fontStyle=1;fontColor=#FFFFFF;fontSize=20;" vertex="1" parent="1">
          <mxGeometry x="450" y="911" width="80" height="60" as="geometry" />
        </mxCell>
        <mxCell id="NtgkYF7F7TmmjQ99U1we-134" style="edgeStyle=elbowEdgeStyle;elbow=vertical;strokeWidth=4;endArrow=block;endFill=1;fontStyle=1;strokeColor=#23445D;entryX=0.5;entryY=0;entryDx=0;entryDy=0;" edge="1" parent="1" source="NtgkYF7F7TmmjQ99U1we-120">
          <mxGeometry relative="1" as="geometry">
            <mxPoint x="720" y="1010" as="targetPoint" />
          </mxGeometry>
        </mxCell>
        <mxCell id="NtgkYF7F7TmmjQ99U1we-120" value="Encoder &#xa;Decoder" style="rounded=1;fillColor=#10739E;strokeColor=none;shadow=1;gradientColor=none;fontStyle=1;fontColor=#FFFFFF;fontSize=20;" vertex="1" parent="1">
          <mxGeometry x="660" y="910" width="120" height="60" as="geometry" />
        </mxCell>
        <mxCell id="NtgkYF7F7TmmjQ99U1we-121" value="BERT" style="rounded=1;fillColor=#666666;strokeColor=none;shadow=1;gradientColor=none;fontStyle=1;fontColor=#FFFFFF;fontSize=20;" vertex="1" parent="1">
          <mxGeometry x="558" y="910" width="80" height="60" as="geometry" />
        </mxCell>
        <mxCell id="NtgkYF7F7TmmjQ99U1we-122" value="GRU" style="rounded=1;fillColor=#666666;strokeColor=none;shadow=1;gradientColor=none;fontStyle=1;fontColor=#FFFFFF;fontSize=20;" vertex="1" parent="1">
          <mxGeometry x="798" y="910" width="80" height="60" as="geometry" />
        </mxCell>
        <mxCell id="NtgkYF7F7TmmjQ99U1we-123" value="Deep &#xa;RNN" style="rounded=1;fillColor=#666666;strokeColor=none;shadow=1;gradientColor=none;fontStyle=1;fontColor=#FFFFFF;fontSize=20;" vertex="1" parent="1">
          <mxGeometry x="908" y="910" width="80" height="60" as="geometry" />
        </mxCell>
        <mxCell id="NtgkYF7F7TmmjQ99U1we-128" value="" style="endArrow=none;dashed=1&#xa;;html=1;dashPattern=1&#xa; 1;strokeWidth=4;rounded=0;shadow=0;strokeColor=#23445D;fillColor=#000000;" edge="1" parent="1" target="NtgkYF7F7TmmjQ99U1we-117">
          <mxGeometry width="50" height="50" relative="1" as="geometry">
            <mxPoint x="720" y="810" as="sourcePoint" />
            <mxPoint x="830" y="800" as="targetPoint" />
          </mxGeometry>
        </mxCell>
        <mxCell id="NtgkYF7F7TmmjQ99U1we-142" style="edgeStyle=elbowEdgeStyle;elbow=vertical;strokeWidth=4;endArrow=block;endFill=1;fontStyle=1;strokeColor=#23445D;entryX=0.5;entryY=0;entryDx=0;entryDy=0;" edge="1" parent="1" source="NtgkYF7F7TmmjQ99U1we-133" target="NtgkYF7F7TmmjQ99U1we-138">
          <mxGeometry relative="1" as="geometry" />
        </mxCell>
        <mxCell id="NtgkYF7F7TmmjQ99U1we-143" style="edgeStyle=orthogonalEdgeStyle;elbow=vertical;strokeWidth=2;endArrow=block;endFill=1;fontStyle=1;strokeColor=#23445D;entryX=0.5;entryY=0;entryDx=0;entryDy=0;exitX=0.5;exitY=1;exitDx=0;exitDy=0;" edge="1" parent="1" source="NtgkYF7F7TmmjQ99U1we-133" target="NtgkYF7F7TmmjQ99U1we-139">
          <mxGeometry relative="1" as="geometry" />
        </mxCell>
        <mxCell id="NtgkYF7F7TmmjQ99U1we-144" style="edgeStyle=orthogonalEdgeStyle;elbow=vertical;strokeWidth=2;endArrow=block;endFill=1;fontStyle=1;strokeColor=#23445D;entryX=0.5;entryY=0;entryDx=0;entryDy=0;exitX=0.5;exitY=1;exitDx=0;exitDy=0;" edge="1" parent="1" source="NtgkYF7F7TmmjQ99U1we-133" target="NtgkYF7F7TmmjQ99U1we-140">
          <mxGeometry relative="1" as="geometry" />
        </mxCell>
        <mxCell id="NtgkYF7F7TmmjQ99U1we-145" style="edgeStyle=orthogonalEdgeStyle;elbow=vertical;strokeWidth=2;endArrow=block;endFill=1;fontStyle=1;strokeColor=#23445D;entryX=0.5;entryY=0;entryDx=0;entryDy=0;exitX=0.5;exitY=1;exitDx=0;exitDy=0;" edge="1" parent="1" source="NtgkYF7F7TmmjQ99U1we-133" target="NtgkYF7F7TmmjQ99U1we-141">
          <mxGeometry relative="1" as="geometry" />
        </mxCell>
        <mxCell id="NtgkYF7F7TmmjQ99U1we-133" value="Attention&#xa; Mechanism" style="rounded=1;fillColor=#10739E;strokeColor=none;shadow=1;gradientColor=none;fontStyle=1;fontColor=#FFFFFF;fontSize=20;" vertex="1" parent="1">
          <mxGeometry x="649" y="1008" width="150" height="70" as="geometry" />
        </mxCell>
        <mxCell id="NtgkYF7F7TmmjQ99U1we-151" style="edgeStyle=elbowEdgeStyle;elbow=vertical;strokeWidth=4;endArrow=block;endFill=1;fontStyle=1;strokeColor=#23445D;entryX=0.5;entryY=0;entryDx=0;entryDy=0;" edge="1" parent="1" source="NtgkYF7F7TmmjQ99U1we-138" target="NtgkYF7F7TmmjQ99U1we-149">
          <mxGeometry relative="1" as="geometry" />
        </mxCell>
        <mxCell id="NtgkYF7F7TmmjQ99U1we-152" style="edgeStyle=orthogonalEdgeStyle;elbow=vertical;strokeWidth=2;endArrow=block;endFill=1;fontStyle=1;strokeColor=#23445D;entryX=0.5;entryY=0;entryDx=0;entryDy=0;exitX=0.5;exitY=1;exitDx=0;exitDy=0;" edge="1" parent="1" source="NtgkYF7F7TmmjQ99U1we-138" target="NtgkYF7F7TmmjQ99U1we-150">
          <mxGeometry relative="1" as="geometry" />
        </mxCell>
        <mxCell id="NtgkYF7F7TmmjQ99U1we-138" value="Transformers" style="rounded=1;fillColor=#10739E;strokeColor=none;shadow=1;gradientColor=none;fontStyle=1;fontColor=#FFFFFF;fontSize=20;" vertex="1" parent="1">
          <mxGeometry x="864" y="1138" width="150" height="70" as="geometry" />
        </mxCell>
        <mxCell id="NtgkYF7F7TmmjQ99U1we-139" value="Bahdanau &#xa;Attention" style="rounded=1;fillColor=#666666;strokeColor=none;shadow=1;gradientColor=none;fontStyle=1;fontColor=#FFFFFF;fontSize=20;" vertex="1" parent="1">
          <mxGeometry x="484" y="1138" width="112" height="60" as="geometry" />
        </mxCell>
        <mxCell id="NtgkYF7F7TmmjQ99U1we-140" value="Multi-Head &#xa;Attention" style="rounded=1;fillColor=#666666;strokeColor=none;shadow=1;gradientColor=none;fontStyle=1;fontColor=#FFFFFF;fontSize=20;" vertex="1" parent="1">
          <mxGeometry x="612" y="1138" width="118" height="60" as="geometry" />
        </mxCell>
        <mxCell id="NtgkYF7F7TmmjQ99U1we-141" value="Self&#xa;Attention" style="rounded=1;fillColor=#666666;strokeColor=none;shadow=1;gradientColor=none;fontStyle=1;fontColor=#FFFFFF;fontSize=20;" vertex="1" parent="1">
          <mxGeometry x="744" y="1138" width="100" height="60" as="geometry" />
        </mxCell>
        <mxCell id="NtgkYF7F7TmmjQ99U1we-161" style="edgeStyle=elbowEdgeStyle;elbow=vertical;strokeWidth=4;endArrow=block;endFill=1;fontStyle=1;strokeColor=#23445D;entryX=0.5;entryY=0;entryDx=0;entryDy=0;" edge="1" parent="1" source="NtgkYF7F7TmmjQ99U1we-146" target="NtgkYF7F7TmmjQ99U1we-157">
          <mxGeometry relative="1" as="geometry" />
        </mxCell>
        <mxCell id="NtgkYF7F7TmmjQ99U1we-162" style="edgeStyle=orthogonalEdgeStyle;elbow=vertical;strokeWidth=2;endArrow=block;endFill=1;fontStyle=1;strokeColor=#23445D;entryX=0.5;entryY=0;entryDx=0;entryDy=0;exitX=0.5;exitY=1;exitDx=0;exitDy=0;" edge="1" parent="1" source="NtgkYF7F7TmmjQ99U1we-146" target="NtgkYF7F7TmmjQ99U1we-160">
          <mxGeometry relative="1" as="geometry" />
        </mxCell>
        <mxCell id="NtgkYF7F7TmmjQ99U1we-163" style="edgeStyle=orthogonalEdgeStyle;elbow=vertical;strokeWidth=2;endArrow=block;endFill=1;fontStyle=1;strokeColor=#23445D;entryX=0.5;entryY=0;entryDx=0;entryDy=0;exitX=0.5;exitY=1;exitDx=0;exitDy=0;" edge="1" parent="1" source="NtgkYF7F7TmmjQ99U1we-146" target="NtgkYF7F7TmmjQ99U1we-159">
          <mxGeometry relative="1" as="geometry" />
        </mxCell>
        <mxCell id="NtgkYF7F7TmmjQ99U1we-146" value="Transformer&#xa;Language Model" style="rounded=1;fillColor=#10739E;strokeColor=none;shadow=1;gradientColor=none;fontStyle=1;fontColor=#FFFFFF;fontSize=20;" vertex="1" parent="1">
          <mxGeometry x="744" y="1368" width="185" height="80" as="geometry" />
        </mxCell>
        <mxCell id="NtgkYF7F7TmmjQ99U1we-147" value="Machine &#xa;Translation" style="rounded=1;fillColor=#666666;strokeColor=none;shadow=1;gradientColor=none;fontStyle=1;fontColor=#FFFFFF;fontSize=20;" vertex="1" parent="1">
          <mxGeometry x="956" y="1368" width="120" height="80" as="geometry" />
        </mxCell>
        <mxCell id="NtgkYF7F7TmmjQ99U1we-148" value="Image &#xa;Classification" style="rounded=1;fillColor=#666666;strokeColor=none;shadow=1;gradientColor=none;fontStyle=1;fontColor=#FFFFFF;fontSize=20;" vertex="1" parent="1">
          <mxGeometry x="1104" y="1368" width="140" height="75" as="geometry" />
        </mxCell>
        <mxCell id="NtgkYF7F7TmmjQ99U1we-155" style="edgeStyle=elbowEdgeStyle;elbow=vertical;strokeWidth=4;endArrow=block;endFill=1;fontStyle=1;strokeColor=#23445D;entryX=0.5;entryY=0;entryDx=0;entryDy=0;" edge="1" parent="1" source="NtgkYF7F7TmmjQ99U1we-149" target="NtgkYF7F7TmmjQ99U1we-146">
          <mxGeometry relative="1" as="geometry" />
        </mxCell>
        <mxCell id="NtgkYF7F7TmmjQ99U1we-149" value="Pre-Trained &#xa;Models" style="rounded=1;fillColor=#10739E;strokeColor=none;shadow=1;gradientColor=none;fontStyle=1;fontColor=#FFFFFF;fontSize=20;" vertex="1" parent="1">
          <mxGeometry x="771.5" y="1255.5" width="130" height="60" as="geometry" />
        </mxCell>
        <mxCell id="NtgkYF7F7TmmjQ99U1we-153" style="edgeStyle=orthogonalEdgeStyle;elbow=vertical;strokeWidth=2;endArrow=block;endFill=1;fontStyle=1;strokeColor=#23445D;entryX=0.5;entryY=0;entryDx=0;entryDy=0;exitX=0.5;exitY=1;exitDx=0;exitDy=0;" edge="1" parent="1" source="NtgkYF7F7TmmjQ99U1we-150" target="NtgkYF7F7TmmjQ99U1we-147">
          <mxGeometry relative="1" as="geometry" />
        </mxCell>
        <mxCell id="NtgkYF7F7TmmjQ99U1we-154" style="edgeStyle=orthogonalEdgeStyle;elbow=vertical;strokeWidth=2;endArrow=block;endFill=1;fontStyle=1;strokeColor=#23445D;entryX=0.5;entryY=0;entryDx=0;entryDy=0;exitX=0.5;exitY=1;exitDx=0;exitDy=0;" edge="1" parent="1" source="NtgkYF7F7TmmjQ99U1we-150" target="NtgkYF7F7TmmjQ99U1we-148">
          <mxGeometry relative="1" as="geometry" />
        </mxCell>
        <mxCell id="NtgkYF7F7TmmjQ99U1we-150" value="Trained &#xa;Datasets" style="rounded=1;fillColor=#666666;strokeColor=none;shadow=1;gradientColor=none;fontStyle=1;fontColor=#FFFFFF;fontSize=20;" vertex="1" parent="1">
          <mxGeometry x="956" y="1255.5" width="120" height="62.5" as="geometry" />
        </mxCell>
        <mxCell id="NtgkYF7F7TmmjQ99U1we-172" style="edgeStyle=elbowEdgeStyle;elbow=vertical;strokeWidth=4;endArrow=block;endFill=1;fontStyle=1;strokeColor=#23445D;exitX=0.25;exitY=1;exitDx=0;exitDy=0;" edge="1" parent="1" source="NtgkYF7F7TmmjQ99U1we-157" target="NtgkYF7F7TmmjQ99U1we-169">
          <mxGeometry relative="1" as="geometry">
            <mxPoint x="814" y="1758" as="targetPoint" />
            <Array as="points">
              <mxPoint x="844" y="1768" />
            </Array>
          </mxGeometry>
        </mxCell>
        <mxCell id="NtgkYF7F7TmmjQ99U1we-173" style="edgeStyle=elbowEdgeStyle;elbow=vertical;strokeWidth=4;endArrow=block;endFill=1;fontStyle=1;strokeColor=#23445D;entryX=0;entryY=0.5;entryDx=0;entryDy=0;exitX=0.25;exitY=1;exitDx=0;exitDy=0;" edge="1" parent="1" source="NtgkYF7F7TmmjQ99U1we-157" target="NtgkYF7F7TmmjQ99U1we-168">
          <mxGeometry relative="1" as="geometry">
            <Array as="points">
              <mxPoint x="814" y="1689" />
            </Array>
          </mxGeometry>
        </mxCell>
        <mxCell id="NtgkYF7F7TmmjQ99U1we-174" style="edgeStyle=elbowEdgeStyle;elbow=vertical;strokeWidth=4;endArrow=block;endFill=1;fontStyle=1;strokeColor=#23445D;entryX=0;entryY=0.5;entryDx=0;entryDy=0;exitX=0.25;exitY=1;exitDx=0;exitDy=0;" edge="1" parent="1" source="NtgkYF7F7TmmjQ99U1we-157" target="NtgkYF7F7TmmjQ99U1we-167">
          <mxGeometry relative="1" as="geometry">
            <Array as="points">
              <mxPoint x="824" y="1618" />
            </Array>
          </mxGeometry>
        </mxCell>
        <mxCell id="NtgkYF7F7TmmjQ99U1we-157" value="Decoder &#xa;Only" style="rounded=1;fillColor=#10739E;strokeColor=none;shadow=1;gradientColor=none;fontStyle=1;fontColor=#FFFFFF;fontSize=20;" vertex="1" parent="1">
          <mxGeometry x="771.5" y="1508" width="130" height="60" as="geometry" />
        </mxCell>
        <mxCell id="NtgkYF7F7TmmjQ99U1we-170" style="edgeStyle=orthogonalEdgeStyle;elbow=vertical;strokeWidth=2;endArrow=block;endFill=1;fontStyle=1;strokeColor=#23445D;entryX=0.5;entryY=0;entryDx=0;entryDy=0;exitX=0.5;exitY=1;exitDx=0;exitDy=0;" edge="1" parent="1" source="NtgkYF7F7TmmjQ99U1we-159" target="NtgkYF7F7TmmjQ99U1we-165">
          <mxGeometry relative="1" as="geometry" />
        </mxCell>
        <mxCell id="NtgkYF7F7TmmjQ99U1we-159" value="Encoder-Decoder" style="rounded=1;fillColor=#666666;strokeColor=none;shadow=1;gradientColor=none;fontStyle=1;fontColor=#FFFFFF;fontSize=20;" vertex="1" parent="1">
          <mxGeometry x="924" y="1508" width="180" height="62.5" as="geometry" />
        </mxCell>
        <mxCell id="NtgkYF7F7TmmjQ99U1we-171" style="edgeStyle=orthogonalEdgeStyle;elbow=vertical;strokeWidth=2;endArrow=block;endFill=1;fontStyle=1;strokeColor=#23445D;entryX=0.5;entryY=0;entryDx=0;entryDy=0;exitX=0.5;exitY=1;exitDx=0;exitDy=0;" edge="1" parent="1" source="NtgkYF7F7TmmjQ99U1we-160" target="NtgkYF7F7TmmjQ99U1we-164">
          <mxGeometry relative="1" as="geometry" />
        </mxCell>
        <mxCell id="NtgkYF7F7TmmjQ99U1we-160" value="Encoder &#xa;Only" style="rounded=1;fillColor=#666666;strokeColor=none;shadow=1;gradientColor=none;fontStyle=1;fontColor=#FFFFFF;fontSize=20;" vertex="1" parent="1">
          <mxGeometry x="649" y="1508" width="100" height="62.5" as="geometry" />
        </mxCell>
        <mxCell id="NtgkYF7F7TmmjQ99U1we-164" value="BERT" style="rounded=1;fillColor=#666666;strokeColor=none;shadow=1;gradientColor=none;fontStyle=1;fontColor=#FFFFFF;fontSize=20;" vertex="1" parent="1">
          <mxGeometry x="649" y="1596.75" width="100" height="62.5" as="geometry" />
        </mxCell>
        <mxCell id="NtgkYF7F7TmmjQ99U1we-165" value="T5" style="rounded=1;fillColor=#666666;strokeColor=none;shadow=1;gradientColor=none;fontStyle=1;fontColor=#FFFFFF;fontSize=20;" vertex="1" parent="1">
          <mxGeometry x="964" y="1598" width="100" height="62.5" as="geometry" />
        </mxCell>
        <mxCell id="NtgkYF7F7TmmjQ99U1we-167" value="GPT" style="rounded=1;fillColor=#10739E;strokeColor=none;shadow=1;gradientColor=none;fontStyle=1;fontColor=#FFFFFF;fontSize=20;" vertex="1" parent="1">
          <mxGeometry x="854" y="1588" width="80" height="60" as="geometry" />
        </mxCell>
        <mxCell id="NtgkYF7F7TmmjQ99U1we-168" value="GPT-2" style="rounded=1;fillColor=#10739E;strokeColor=none;shadow=1;gradientColor=none;fontStyle=1;fontColor=#FFFFFF;fontSize=20;" vertex="1" parent="1">
          <mxGeometry x="854" y="1659.25" width="80" height="60" as="geometry" />
        </mxCell>
        <mxCell id="NtgkYF7F7TmmjQ99U1we-169" value="GPT-3" style="rounded=1;fillColor=#10739E;strokeColor=none;shadow=1;gradientColor=none;fontStyle=1;fontColor=#FFFFFF;fontSize=20;" vertex="1" parent="1">
          <mxGeometry x="857" y="1739.25" width="80" height="60" as="geometry" />
        </mxCell>
      </root>
    </mxGraphModel>
  </diagram>
</mxfile>
